<svg width="147" height="109" viewBox="0 0 147 109" fill="none" xmlns="http://www.w3.org/2000/svg">
<circle cx="116.871" cy="25.2016" r="10.9102" stroke="white" stroke-width="3"/>
<path d="M117.257 8.5C122.595 8.69901 128.183 11.4886 133.257 15.1924C137.811 18.5166 141.806 22.4728 144.64 25.6084C141.748 28.7337 137.312 32.7891 132.502 36.1787C129.839 38.0552 127.094 39.7068 124.461 40.8838C121.814 42.0673 119.369 42.7305 117.284 42.7305C111.578 42.7304 105.701 39.665 100.511 35.6963C95.9192 32.1851 92.0341 28.0962 89.5049 25.2207C92.6818 21.7605 96.8902 17.7636 101.54 14.541C106.656 10.9955 112.13 8.50891 117.257 8.5Z" stroke="white" stroke-width="3"/>
<circle cx="30" cy="100.5" r="6.5" stroke="white" stroke-width="3"/>
<circle cx="88" cy="100.5" r="6.5" stroke="white" stroke-width="3"/>
<path d="M81.5 100.5H74M36.5 92L44.4852 100.484C44.4946 100.494 44.5078 100.5 44.5216 100.5H74M36.5 92H7.5M36.5 92H67.45C67.4776 92 67.5 91.9776 67.5 91.95V88.5M7.5 92V100.45C7.5 100.478 7.52239 100.5 7.55 100.5H23.5M7.5 92H1.55C1.52239 92 1.5 91.9776 1.5 91.95V54.55C1.5 54.5224 1.52239 54.5 1.55 54.5H67.45C67.4776 54.5 67.5 54.5224 67.5 54.55V88.5M111.5 78V74.0043C111.5 74.0014 111.5 73.9986 111.499 73.9957L109.5 62.5L108.507 57.0369C108.503 57.015 108.485 56.9984 108.463 56.9961L79.5344 54.0036C79.5137 54.0014 79.4938 54.0123 79.4845 54.0309L76.5053 59.9894C76.5018 59.9964 76.5 60.004 76.5 60.0118V88.45C76.5 88.4776 76.4776 88.5 76.45 88.5H67.5M74 100.5C74 100.5 74 86 88.5 86C102.515 86 102.984 99.5472 102.999 100.453C103 100.48 103.022 100.5 103.05 100.5H111.45C111.478 100.5 111.5 100.478 111.5 100.45V78M105.5 88.5V92M111.5 78L88.5256 74.5039C88.5096 74.5015 88.4957 74.4914 88.4884 74.4768L85.5053 68.5106C85.5018 68.5036 85.5 68.496 85.5 68.4882V62.55C85.5 62.5224 85.5224 62.5 85.55 62.5H109.5" stroke="white" stroke-width="3" stroke-linecap="round"/>
</svg>
